<?xml version="1.0" standalone="no"?>
<!DOCTYPE svg PUBLIC "-//W3C//DTD SVG 20010904//EN"
 "http://www.w3.org/TR/2001/REC-SVG-20010904/DTD/svg10.dtd">
<svg version="1.0" xmlns="http://www.w3.org/2000/svg"
 width="700.000000pt" height="700.000000pt" viewBox="0 0 700.000000 700.000000"
 preserveAspectRatio="xMidYMid meet">
<metadata>
Created by potrace 1.11, written by Peter Selinger 2001-2013
</metadata>
<g transform="translate(0.000000,700.000000) scale(0.100000,-0.100000)"
fill="#000000" stroke="none">
<path d="M5965 6981 c-73 -18 -189 -65 -216 -88 -8 -7 -21 -13 -27 -13 -7 0
-12 -4 -12 -8 0 -4 -12 -15 -27 -24 -16 -10 -47 -35 -71 -56 -120 -110 -166
-126 -362 -126 -128 1 -255 11 -410 34 -36 5 -87 12 -115 15 -27 3 -59 8 -70
10 -11 2 -45 7 -75 10 -30 3 -66 7 -80 9 -14 3 -56 7 -93 11 -37 3 -76 8 -86
10 -134 26 -887 26 -931 0 -3 -1 -36 -6 -75 -10 -38 -4 -72 -8 -75 -10 -3 -2
-26 -6 -50 -10 -180 -26 -525 -128 -695 -205 -312 -141 -635 -333 -683 -406
-23 -35 -23 -39 -7 -114 4 -21 -3 -31 -53 -68 -33 -24 -72 -55 -88 -69 -81
-73 -69 -67 -101 -44 -56 41 -137 25 -168 -33 -21 -39 -16 -110 9 -129 13 -10
1 -27 -80 -111 -90 -94 -95 -98 -122 -88 -61 24 -105 14 -145 -32 -38 -44 -54
-63 -107 -131 -30 -39 -57 -72 -60 -75 -15 -12 -183 -267 -228 -345 -216 -374
-368 -804 -417 -1185 -11 -87 -14 -116 -22 -195 -11 -107 -10 -576 1 -695 4
-52 9 -111 11 -131 2 -20 6 -59 9 -85 3 -27 9 -71 12 -99 2 -27 9 -77 14 -110
5 -33 12 -85 15 -115 3 -30 10 -80 15 -110 9 -54 14 -96 27 -230 13 -126 8
-312 -10 -371 -18 -60 -33 -83 -120 -186 -93 -110 -160 -241 -185 -366 -15
-72 -6 -250 17 -332 89 -321 350 -576 666 -650 17 -4 39 -9 50 -11 53 -13 197
-12 263 1 160 31 282 97 417 226 74 71 144 92 310 93 112 0 211 -5 305 -19 36
-5 92 -12 195 -25 50 -6 99 -13 110 -15 11 -2 40 -7 65 -9 25 -3 86 -10 135
-16 154 -18 168 -19 265 -27 190 -16 754 -8 830 12 8 2 35 7 60 10 904 122
1779 681 2426 1550 139 187 230 338 338 560 164 335 260 666 306 1054 14 126
17 215 15 461 -2 168 -5 316 -8 330 -3 14 -8 59 -11 100 -3 41 -8 93 -11 115
-4 22 -8 56 -10 75 -5 51 -14 126 -25 200 -6 36 -12 81 -14 100 -2 19 -7 55
-10 80 -29 213 -39 430 -23 529 11 67 50 138 122 221 216 247 262 557 124 847
-118 248 -329 428 -589 503 -103 30 -270 35 -365 11z"/>
</g>
</svg>
